<?xml version="1.0" encoding="UTF-8"?>
<svg width="1200pt" height="1200pt" version="1.1" viewBox="0 0 1200 1200" xmlns="http://www.w3.org/2000/svg">
 <path d="m981 447.66h-190.69l-135.32-290.68c-14.438-30.891-47.625-48.422-81.328-42.984l-146.02 24 111.66 305.34-282.28 42.328-43.312-66.656h-0.046875c-14.203-21-37.969-33.516-63.328-33.328h-83.672v433.31h82.359c26.25 0.09375 50.719-13.406 64.641-35.672l43.312-69 282.32 33.328-111.66 314.68 146.02 24c33.703 5.4375 66.891-12.094 81.328-42.984l135.32-290.68h190.69c84.141 0 152.34-68.203 152.34-152.34 0-84.141-68.203-152.34-152.34-152.34z" fill-rule="evenodd"/>
</svg>
