<?xml version="1.0" encoding="UTF-8"?>
<svg width="1200pt" height="1200pt" version="1.1" viewBox="0 0 1200 1200" xmlns="http://www.w3.org/2000/svg">
 <path d="m1125 412.5c0-103.35-84.074-187.5-187.5-187.5h-75c-20.699 0-37.5 16.801-37.5 37.5s16.801 37.5 37.5 37.5h75c62.023 0 112.5 50.477 112.5 112.5s-50.477 112.5-112.5 112.5h-326.93c-55.125 0-108.3-20.25-149.47-56.852l-273.6-243.15v150l-101.93 189.52c-5.6992 10.578-8.9258 22.652-8.9258 35.477 0 40.875 32.773 73.801 73.426 74.699l-0.074219 0.30078h75c41.398 0 75 33.602 75 75v225c0 41.25 33.75 75 75 75s75-33.75 75-75v-75c0-41.398 33.602-75 75-75h225c41.398 0 75 33.602 75 75v75c0 41.25 33.75 75 75 75s75-33.75 75-75v-378.82c85.5-17.402 150-93.152 150-183.68z"/>
</svg>
