<?xml version="1.0" encoding="UTF-8"?>
<svg width="1200pt" height="1200pt" version="1.1" viewBox="0 0 1200 1200" xmlns="http://www.w3.org/2000/svg">
 <path d="m776.26 600 325.87-283.36c6.1406 13.172 9.375 27.562 9.375 42.094v482.53c0 14.531-3.2344 28.922-9.375 42.094zm-215.11 53.109c22.266 19.406 55.453 19.406 77.719 0l431.48-375h0.046875c-17.109-12.516-37.688-19.312-58.875-19.359h-823.03c-21.188 0.046875-41.766 6.8438-58.875 19.359zm177-20.016-66.375 57.75v0.046875c-41.25 35.484-102.28 35.484-143.53 0l-65.719-57.75-332.9 288.84c17.109 12.516 37.734 19.219 58.875 19.266h823.03c21.188-0.046875 41.766-6.8438 58.875-19.359zm-640.26-316.45c-6.1406 13.172-9.375 27.562-9.375 42.094v482.53c0 14.531 3.2344 28.922 9.375 42.094l325.87-283.36z"/>
</svg>
